<?xml version="1.0" standalone="no"?>
<!DOCTYPE svg PUBLIC "-//W3C//DTD SVG 20010904//EN"
 "http://www.w3.org/TR/2001/REC-SVG-20010904/DTD/svg10.dtd">
<svg version="1.0" xmlns="http://www.w3.org/2000/svg"
 width="1300.000000pt" height="1300.000000pt" viewBox="0 0 1300.000000 1300.000000"
 preserveAspectRatio="xMidYMid meet">

<g transform="translate(0.000000,1300.000000) scale(0.100000,-0.100000)"
fill="#000000" stroke="none">
<path d="M6270 12324 c-385 -25 -798 -94 -1055 -174 -16 -6 -80 -25 -141 -45
-105 -32 -193 -64 -239 -85 -11 -5 -92 -39 -180 -76 -215 -90 -378 -172 -369
-186 4 -7 3 -8 -4 -4 -21 12 -264 -132 -477 -283 -319 -227 -606 -491 -872
-802 -102 -119 -253 -320 -253 -336 0 -4 10 -18 23 -32 l22 -26 -28 25 c-17
15 -31 20 -35 14 -133 -190 -311 -501 -390 -679 l-14 -30 24 20 c12 11 9 4 -9
-15 -78 -86 -277 -670 -338 -990 -71 -374 -86 -520 -92 -873 -5 -280 -4 -299
13 -320 17 -20 17 -20 1 -8 -17 14 -18 11 -13 -35 3 -27 10 -96 16 -154 114
-1112 651 -2313 1583 -3540 113 -148 117 -152 136 -137 14 11 14 10 2 -5 -11
-15 -11 -21 2 -40 17 -27 358 -435 461 -553 442 -507 1100 -1157 1656 -1636
321 -276 775 -639 800 -639 17 0 238 170 484 374 483 399 796 684 1261 1150
409 410 584 599 885 956 25 29 61 72 80 94 88 104 230 284 230 291 0 5 -8 18
-17 29 l-18 21 23 -19 c27 -23 18 -31 124 109 157 209 294 403 402 565 27 41
61 93 76 115 42 63 203 324 237 385 17 30 47 84 68 120 175 305 454 905 442
952 -3 10 -1 16 5 15 18 -4 111 258 192 539 67 235 119 489 153 749 24 182 27
231 27 540 1 346 -4 420 -50 732 -43 293 -140 653 -259 958 -85 216 -112 273
-154 320 -28 31 -30 34 -7 15 25 -21 18 -4 -49 127 -100 196 -278 479 -300
477 -11 -1 -13 2 -6 10 20 24 -273 392 -474 596 -280 284 -455 431 -755 635
-205 140 -589 353 -610 340 -6 -3 -10 -2 -10 3 0 12 -117 65 -295 135 -397
155 -744 239 -1215 292 -127 15 -580 27 -700 19z m-1750 -792 c59 -59 76 -91
52 -99 -12 -5 -162 134 -162 149 0 4 12 8 26 8 18 0 43 -17 84 -58z m2280 28
c491 -38 1002 -180 1450 -405 108 -54 193 -100 250 -135 306 -187 504 -342
756 -594 262 -263 434 -482 605 -775 300 -513 475 -1061 529 -1661 13 -148 13
-512 0 -660 -14 -147 -53 -396 -85 -530 -31 -131 -74 -288 -85 -315 -21 -49
-22 -67 -3 -88 18 -22 18 -22 -3 -4 -21 17 -21 17 -59 -89 -59 -169 -182 -429
-283 -601 -396 -671 -954 -1191 -1647 -1535 -71 -36 -146 -71 -165 -78 -19 -7
-41 -18 -48 -23 -14 -11 -135 -54 -327 -117 -596 -194 -1256 -238 -1874 -125
-290 54 -621 152 -851 255 -52 23 -120 52 -150 65 -54 23 -255 132 -335 182
-306 192 -494 340 -735 582 -283 283 -487 555 -672 898 -74 135 -183 370 -208
448 -7 22 -21 57 -30 77 -13 30 -19 35 -29 25 -11 -10 -11 -8 -2 8 10 16 8 34
-12 93 -13 39 -26 70 -29 67 -3 -3 -11 3 -19 12 -13 17 -13 17 5 3 18 -14 19
-13 13 10 -68 241 -129 556 -147 755 -15 163 -12 597 5 755 61 577 262 1177
547 1633 27 44 47 85 44 92 -3 8 0 12 7 10 7 -2 30 24 52 58 194 303 539 668
864 916 565 430 1252 705 1956 780 200 22 510 26 715 11z m-2564 -132 c-16
-15 -33 -28 -37 -28 -5 0 -9 -8 -9 -19 0 -10 -13 -28 -29 -40 -17 -14 -32 -36
-35 -55 -8 -39 -33 -72 -61 -77 -14 -3 -23 -17 -30 -47 -6 -23 -22 -53 -35
-65 -14 -12 -32 -35 -40 -52 -8 -16 -20 -33 -27 -38 -6 -4 -14 -21 -18 -37 -4
-17 -13 -30 -21 -30 -8 0 -14 -8 -15 -17 0 -10 -9 -36 -19 -58 -15 -31 -19
-35 -19 -17 -1 22 -21 32 -21 10 0 -7 -11 -22 -26 -34 -14 -12 -21 -25 -15
-28 5 -4 12 -2 16 4 3 5 11 10 17 10 6 0 -6 -13 -27 -30 -20 -16 -62 -54 -93
-85 -30 -30 -59 -55 -63 -55 -4 0 -11 -9 -14 -20 -3 -11 -17 -23 -31 -26 -13
-3 -24 -10 -24 -16 0 -13 -106 -119 -112 -112 -3 3 -5 -1 -5 -9 1 -7 -23 -41
-53 -74 -112 -123 -125 -138 -122 -145 1 -5 -5 -8 -13 -8 -8 0 -15 -7 -15 -15
0 -8 -19 -38 -42 -67 -58 -72 -98 -126 -98 -132 0 -6 -81 -129 -90 -136 -7 -5
-58 -97 -92 -163 -10 -21 -22 -35 -27 -33 -4 3 -8 -1 -8 -7 0 -7 -25 -65 -56
-128 -76 -156 -97 -203 -97 -217 0 -7 -6 -15 -14 -18 -7 -3 -16 -22 -20 -42
-3 -20 -12 -48 -19 -62 -7 -14 -19 -45 -26 -70 -7 -25 -18 -55 -24 -68 -10
-20 -12 -21 -17 -7 -5 15 -7 15 -18 2 -7 -8 -12 -19 -11 -23 1 -5 -2 -28 -6
-52 -6 -34 -10 -40 -21 -31 -19 16 -44 -12 -44 -50 0 -17 -4 -31 -9 -31 -5 0
-15 -15 -22 -33 -7 -20 -23 -38 -40 -46 -24 -10 -27 -16 -19 -31 18 -34 12
-50 -20 -50 -20 0 -33 -6 -37 -17 -3 -10 -16 -29 -29 -43 -12 -14 -24 -36 -27
-50 -4 -23 -4 -23 -7 5 -2 30 -2 30 -10 5 -7 -19 -8 -12 -8 30 1 30 5 60 9 65
4 6 10 35 13 65 6 69 30 188 63 305 13 50 29 106 33 125 48 189 197 539 332
778 32 57 58 106 58 109 0 3 10 19 22 36 12 17 16 27 8 22 -9 -6 -11 -4 -5 4
4 8 -4 25 -21 44 l-29 32 31 -27 c16 -16 33 -28 37 -28 7 0 66 79 135 180 142
207 459 553 661 720 30 25 65 54 77 65 30 28 88 73 148 117 28 21 56 41 61 45
48 39 73 56 175 121 102 65 129 73 155 48 l20 -20 -29 -28z m5014 -303 c13
-14 21 -25 18 -25 -2 0 -15 11 -28 25 -13 14 -21 25 -18 25 2 0 15 -11 28 -25z
m80 -80 c13 -14 21 -25 18 -25 -2 0 -15 11 -28 25 -13 14 -21 25 -18 25 2 0
15 -11 28 -25z m80 -80 c13 -14 21 -25 18 -25 -2 0 -15 11 -28 25 -13 14 -21
25 -18 25 2 0 15 -11 28 -25z m-5436 -30 c-4 -8 -8 -15 -10 -15 -2 0 -4 7 -4
15 0 8 4 15 10 15 5 0 7 -7 4 -15z m-44 -35 c0 -5 -2 -10 -4 -10 -3 0 -8 5
-11 10 -3 6 -1 10 4 10 6 0 11 -4 11 -10z m5560 -15 c13 -14 21 -25 18 -25 -2
0 -15 11 -28 25 -13 14 -21 25 -18 25 2 0 15 -11 28 -25z m80 -80 c13 -14 21
-25 18 -25 -2 0 -15 11 -28 25 -13 14 -21 25 -18 25 2 0 15 -11 28 -25z m80
-80 c13 -14 21 -25 18 -25 -2 0 -15 11 -28 25 -13 14 -21 25 -18 25 2 0 15
-11 28 -25z m71 -72 c13 -16 12 -17 -3 -4 -17 13 -22 21 -14 21 2 0 10 -8 17
-17z m89 -88 c13 -14 21 -25 18 -25 -2 0 -15 11 -28 25 -13 14 -21 25 -18 25
2 0 15 -11 28 -25z m80 -80 c13 -14 21 -25 18 -25 -2 0 -15 11 -28 25 -13 14
-21 25 -18 25 2 0 15 -11 28 -25z m80 -80 c13 -14 21 -25 18 -25 -2 0 -15 11
-28 25 -13 14 -21 25 -18 25 2 0 15 -11 28 -25z m80 -80 c13 -14 21 -25 18
-25 -2 0 -15 11 -28 25 -13 14 -21 25 -18 25 2 0 15 -11 28 -25z m80 -80 c13
-14 21 -25 18 -25 -2 0 -15 11 -28 25 -13 14 -21 25 -18 25 2 0 15 -11 28 -25z
m170 22 c0 -2 -15 -16 -32 -33 l-33 -29 29 33 c28 30 36 37 36 29z m-89 -81
c8 4 9 3 5 -5 -4 -6 -2 -20 6 -29 12 -15 11 -16 -4 -3 -15 11 -21 11 -35 0
-16 -13 -17 -12 -4 4 11 14 11 20 0 35 -13 15 -12 16 3 4 9 -8 23 -10 29 -6z
m-7431 -69 c0 -2 -12 -14 -27 -28 l-28 -24 24 28 c23 25 31 32 31 24z m7360
-10 c0 -2 -12 -14 -27 -28 l-28 -24 24 28 c23 25 31 32 31 24z m150 -22 c13
-14 21 -25 18 -25 -2 0 -15 11 -28 25 -13 14 -21 25 -18 25 2 0 15 -11 28 -25z
m-7600 -58 c0 -2 -12 -14 -27 -28 l-28 -24 24 28 c23 25 31 32 31 24z m7370 0
c0 -1 -30 -32 -67 -67 l-68 -65 65 68 c60 62 70 72 70 64z m310 -22 c13 -14
21 -25 18 -25 -2 0 -15 11 -28 25 -13 14 -21 25 -18 25 2 0 15 -11 28 -25z
m-7760 -58 c0 -2 -10 -12 -22 -23 l-23 -19 19 23 c18 21 26 27 26 19z m7840
-22 c13 -14 21 -25 18 -25 -2 0 -15 11 -28 25 -13 14 -21 25 -18 25 2 0 15
-11 28 -25z m-7339 -32 c13 -16 12 -17 -3 -4 -10 7 -18 15 -18 17 0 8 8 3 21
-13z m-581 -26 c0 -2 -10 -12 -22 -23 l-23 -19 19 23 c18 21 26 27 26 19z
m7370 0 c0 -2 -12 -14 -27 -28 l-28 -24 24 28 c23 25 31 32 31 24z m630 -22
c13 -14 21 -25 18 -25 -2 0 -15 11 -28 25 -13 14 -21 25 -18 25 2 0 15 -11 28
-25z m-690 -39 c0 -2 -8 -10 -17 -17 -16 -13 -17 -12 -4 4 13 16 21 21 21 13z
m-7390 -19 c0 -2 -12 -14 -27 -28 l-28 -24 24 28 c23 25 31 32 31 24z m8160
-22 c13 -14 21 -25 18 -25 -2 0 -15 11 -28 25 -13 14 -21 25 -18 25 2 0 15
-11 28 -25z m-8240 -58 c0 -2 -10 -12 -22 -23 l-23 -19 19 23 c18 21 26 27 26
19z m8740 -2330 c0 -2 -12 -14 -27 -28 l-28 -24 24 28 c23 25 31 32 31 24z
m-70 -70 c0 -2 -15 -16 -32 -33 l-33 -29 29 33 c28 30 36 37 36 29z m-8970
-92 c30 -30 52 -55 49 -55 -2 0 -29 25 -59 55 -30 30 -52 55 -49 55 2 0 29
-25 59 -55z m8880 2 c0 -2 -12 -14 -27 -28 l-28 -24 24 28 c23 25 31 32 31 24z
m-70 -71 c0 -2 -8 -10 -17 -17 -16 -13 -17 -12 -4 4 13 16 21 21 21 13z
m-8659 -83 c13 -16 12 -17 -3 -4 -10 7 -18 15 -18 17 0 8 8 3 21 -13z m8569
-7 c0 -2 -8 -10 -17 -17 -16 -13 -17 -12 -4 4 13 16 21 21 21 13z m-70 -69 c0
-2 -10 -12 -22 -23 l-23 -19 19 23 c18 21 26 27 26 19z m-90 -90 c0 -2 -12
-14 -27 -28 l-28 -24 24 28 c23 25 31 32 31 24z m-70 -71 c0 -2 -8 -10 -17
-17 -16 -13 -17 -12 -4 4 13 16 21 21 21 13z m-8019 -83 c13 -16 12 -17 -3 -4
-17 13 -22 21 -14 21 2 0 10 -8 17 -17z m7939 4 c0 -2 -10 -12 -22 -23 l-23
-19 19 23 c18 21 26 27 26 19z m-80 -80 c0 -2 -15 -16 -32 -33 l-33 -29 29 33
c28 30 36 37 36 29z m-7695 -87 c10 -11 16 -20 13 -20 -3 0 -13 9 -23 20 -10
11 -16 20 -13 20 3 0 13 -9 23 -20z m7585 -24 c0 -2 -8 -10 -17 -17 -16 -13
-17 -12 -4 4 13 16 21 21 21 13z m0 -231 c19 -19 32 -35 29 -35 -3 0 -20 16
-39 35 -19 19 -32 35 -29 35 3 0 20 -16 39 -35z m-7540 -19 c0 -2 -8 -10 -17
-17 -16 -13 -17 -12 -4 4 13 16 21 21 21 13z m-70 -69 c0 -2 -17 -19 -37 -38
l-38 -34 34 38 c33 34 41 42 41 34z m7770 -72 c13 -14 21 -25 18 -25 -2 0 -15
11 -28 25 -13 14 -21 25 -18 25 2 0 15 -11 28 -25z m86 -87 l29 -33 -32 29
c-31 28 -38 36 -30 36 2 0 16 -15 33 -32z m-8016 -1 c0 -2 -10 -12 -22 -23
l-23 -19 19 23 c18 21 26 27 26 19z m8081 -64 c13 -16 12 -17 -3 -4 -10 7 -18
15 -18 17 0 8 8 3 21 -13z m-8201 -56 c0 -2 -10 -12 -22 -23 l-23 -19 19 23
c18 21 26 27 26 19z m8290 -32 c19 -19 32 -35 29 -35 -3 0 -20 16 -39 35 -19
19 -32 35 -29 35 3 0 20 -16 39 -35z m-8340 -19 c0 -2 -8 -10 -17 -17 -16 -13
-17 -12 -4 4 13 16 21 21 21 13z m8401 -43 c13 -16 12 -17 -3 -4 -10 7 -18 15
-18 17 0 8 8 3 21 -13z m-5276 -2033 c10 -11 16 -20 13 -20 -3 0 -13 9 -23 20
-10 11 -16 20 -13 20 3 0 13 -9 23 -20z m-1655 -43 c0 -2 -17 -19 -37 -38
l-38 -34 34 38 c33 34 41 42 41 34z m1735 -37 c10 -11 16 -20 13 -20 -3 0 -13
9 -23 20 -10 11 -16 20 -13 20 3 0 13 -9 23 -20z m-1815 -43 c0 -2 -12 -14
-27 -28 l-28 -24 24 28 c23 25 31 32 31 24z m1895 -37 c10 -11 16 -20 13 -20
-3 0 -13 9 -23 20 -10 11 -16 20 -13 20 3 0 13 -9 23 -20z m1795 6 c0 -2 -8
-10 -17 -17 -16 -13 -17 -12 -4 4 13 16 21 21 21 13z m1951 -53 c13 -16 12
-17 -3 -4 -10 7 -18 15 -18 17 0 8 8 3 21 -13z m-5721 4 c0 -2 -12 -14 -27
-28 l-28 -24 24 28 c23 25 31 32 31 24z m3690 -31 c0 -2 -8 -10 -17 -17 -16
-13 -17 -12 -4 4 13 16 21 21 21 13z m-1555 -86 c10 -11 16 -20 13 -20 -3 0
-13 9 -23 20 -10 11 -16 20 -13 20 3 0 13 -9 23 -20z m1475 6 c0 -2 -8 -10
-17 -17 -16 -13 -17 -12 -4 4 13 16 21 21 21 13z m-1395 -86 c10 -11 16 -20
13 -20 -3 0 -13 9 -23 20 -10 11 -16 20 -13 20 3 0 13 -9 23 -20z m1315 6 c0
-2 -8 -10 -17 -17 -16 -13 -17 -12 -4 4 13 16 21 21 21 13z m-1235 -86 c10
-11 16 -20 13 -20 -3 0 -13 9 -23 20 -10 11 -16 20 -13 20 3 0 13 -9 23 -20z
m1155 6 c0 -2 -8 -10 -17 -17 -16 -13 -17 -12 -4 4 13 16 21 21 21 13z m-1075
-86 c10 -11 16 -20 13 -20 -3 0 -13 9 -23 20 -10 11 -16 20 -13 20 3 0 13 -9
23 -20z m995 6 c0 -2 -8 -10 -17 -17 -16 -13 -17 -12 -4 4 13 16 21 21 21 13z
m-915 -86 c10 -11 16 -20 13 -20 -3 0 -13 9 -23 20 -10 11 -16 20 -13 20 3 0
13 -9 23 -20z m835 6 c0 -2 -8 -10 -17 -17 -16 -13 -17 -12 -4 4 13 16 21 21
21 13z m-755 -86 c10 -11 16 -20 13 -20 -3 0 -13 9 -23 20 -10 11 -16 20 -13
20 3 0 13 -9 23 -20z m675 6 c0 -2 -8 -10 -17 -17 -16 -13 -17 -12 -4 4 13 16
21 21 21 13z m-595 -86 c10 -11 16 -20 13 -20 -3 0 -13 9 -23 20 -10 11 -16
20 -13 20 3 0 13 -9 23 -20z m515 6 c0 -2 -8 -10 -17 -17 -16 -13 -17 -12 -4
4 13 16 21 21 21 13z m-435 -86 c10 -11 16 -20 13 -20 -3 0 -13 9 -23 20 -10
11 -16 20 -13 20 3 0 13 -9 23 -20z m355 6 c0 -2 -8 -10 -17 -17 -16 -13 -17
-12 -4 4 13 16 21 21 21 13z m-275 -86 c10 -11 16 -20 13 -20 -3 0 -13 9 -23
20 -10 11 -16 20 -13 20 3 0 13 -9 23 -20z m195 6 c0 -2 -8 -10 -17 -17 -16
-13 -17 -12 -4 4 13 16 21 21 21 13z m-100 -103 c19 -21 26 -30 15 -21 -18 17
-20 17 -45 -5 l-25 -22 22 25 c21 24 22 27 6 43 -10 9 -15 17 -12 17 3 0 21
-17 39 -37z m65 -63 c10 -11 16 -20 13 -20 -3 0 -13 9 -23 20 -10 11 -16 20
-13 20 3 0 13 -9 23 -20z m-125 6 c0 -2 -8 -10 -17 -17 -16 -13 -17 -12 -4 4
13 16 21 21 21 13z m205 -86 c10 -11 16 -20 13 -20 -3 0 -13 9 -23 20 -10 11
-16 20 -13 20 3 0 13 -9 23 -20z m-285 6 c0 -2 -8 -10 -17 -17 -16 -13 -17
-12 -4 4 13 16 21 21 21 13z m365 -86 c10 -11 16 -20 13 -20 -3 0 -13 9 -23
20 -10 11 -16 20 -13 20 3 0 13 -9 23 -20z m-445 6 c0 -2 -8 -10 -17 -17 -16
-13 -17 -12 -4 4 13 16 21 21 21 13z m525 -86 c10 -11 16 -20 13 -20 -3 0 -13
9 -23 20 -10 11 -16 20 -13 20 3 0 13 -9 23 -20z m-605 6 c0 -2 -8 -10 -17
-17 -16 -13 -17 -12 -4 4 13 16 21 21 21 13z m685 -86 c10 -11 16 -20 13 -20
-3 0 -13 9 -23 20 -10 11 -16 20 -13 20 3 0 13 -9 23 -20z m-765 6 c0 -2 -8
-10 -17 -17 -16 -13 -17 -12 -4 4 13 16 21 21 21 13z m845 -86 c10 -11 16 -20
13 -20 -3 0 -13 9 -23 20 -10 11 -16 20 -13 20 3 0 13 -9 23 -20z m-925 6 c0
-2 -8 -10 -17 -17 -16 -13 -17 -12 -4 4 13 16 21 21 21 13z m1005 -86 c10 -11
16 -20 13 -20 -3 0 -13 9 -23 20 -10 11 -16 20 -13 20 3 0 13 -9 23 -20z
m-1085 6 c0 -2 -8 -10 -17 -17 -16 -13 -17 -12 -4 4 13 16 21 21 21 13z m1165
-86 c10 -11 16 -20 13 -20 -3 0 -13 9 -23 20 -10 11 -16 20 -13 20 3 0 13 -9
23 -20z m-1245 6 c0 -2 -8 -10 -17 -17 -16 -13 -17 -12 -4 4 13 16 21 21 21
13z m1325 -86 c10 -11 16 -20 13 -20 -3 0 -13 9 -23 20 -10 11 -16 20 -13 20
3 0 13 -9 23 -20z m-1405 6 c0 -2 -8 -10 -17 -17 -16 -13 -17 -12 -4 4 13 16
21 21 21 13z m1485 -86 c10 -11 16 -20 13 -20 -3 0 -13 9 -23 20 -10 11 -16
20 -13 20 3 0 13 -9 23 -20z m-1565 6 c0 -2 -8 -10 -17 -17 -16 -13 -17 -12
-4 4 13 16 21 21 21 13z m1645 -86 c10 -11 16 -20 13 -20 -3 0 -13 9 -23 20
-10 11 -16 20 -13 20 3 0 13 -9 23 -20z m-1725 6 c0 -2 -8 -10 -17 -17 -16
-13 -17 -12 -4 4 13 16 21 21 21 13z m1805 -86 c10 -11 16 -20 13 -20 -3 0
-13 9 -23 20 -10 11 -16 20 -13 20 3 0 13 -9 23 -20z m-1885 6 c0 -2 -8 -10
-17 -17 -16 -13 -17 -12 -4 4 13 16 21 21 21 13z m1965 -86 c10 -11 16 -20 13
-20 -3 0 -13 9 -23 20 -10 11 -16 20 -13 20 3 0 13 -9 23 -20z m-2045 6 c0 -2
-8 -10 -17 -17 -16 -13 -17 -12 -4 4 13 16 21 21 21 13z"/>
<path d="M5425 10290 c-124 -18 -242 -79 -338 -174 -145 -145 -238 -344 -298
-645 -36 -176 -50 -447 -30 -553 21 -109 83 -264 100 -253 5 3 12 -2 15 -11 3
-8 2 -12 -3 -9 -18 11 20 -54 45 -77 14 -13 32 -36 40 -51 22 -41 163 -148
262 -199 113 -59 228 -98 437 -147 204 -48 270 -56 353 -42 197 32 304 178
342 471 15 111 15 585 1 724 -26 242 -91 478 -168 614 -38 67 -124 168 -183
214 -64 50 -160 96 -248 119 -89 22 -242 31 -327 19z m785 -503 c0 -2 -10 -12
-22 -23 l-23 -19 19 23 c18 21 26 27 26 19z m-80 -80 c0 -2 -10 -12 -22 -23
l-23 -19 19 23 c18 21 26 27 26 19z m-80 -80 c0 -2 -10 -12 -22 -23 l-23 -19
19 23 c18 21 26 27 26 19z m-80 -80 c0 -2 -10 -12 -22 -23 l-23 -19 19 23 c18
21 26 27 26 19z m-80 -80 c0 -2 -10 -12 -22 -23 l-23 -19 19 23 c18 21 26 27
26 19z m-90 -91 c0 -2 -8 -10 -17 -17 -16 -13 -17 -12 -4 4 13 16 21 21 21 13z
m-70 -69 c0 -2 -10 -12 -22 -23 l-23 -19 19 23 c18 21 26 27 26 19z m-80 -80
c0 -2 -10 -12 -22 -23 l-23 -19 19 23 c18 21 26 27 26 19z m-80 -80 c0 -2 -10
-12 -22 -23 l-23 -19 19 23 c18 21 26 27 26 19z"/>
<path d="M7370 10293 c-221 -22 -400 -124 -511 -288 -33 -49 -74 -126 -102
-195 -97 -231 -142 -639 -118 -1065 20 -353 88 -508 259 -588 62 -29 74 -31
172 -30 89 1 132 8 285 46 230 58 302 81 396 128 105 52 142 78 229 163 135
131 191 217 240 371 28 88 38 299 21 442 -18 144 -58 330 -96 444 -62 182
-175 360 -285 445 -130 102 -303 146 -490 127z m-430 -640 c0 -8 -9 0 -50 45
l-45 47 48 -45 c26 -24 47 -45 47 -47z m71 -70 c13 -16 12 -17 -3 -4 -10 7
-18 15 -18 17 0 8 8 3 21 -13z m64 -63 c10 -11 16 -20 13 -20 -3 0 -13 9 -23
20 -10 11 -16 20 -13 20 3 0 13 -9 23 -20z m160 -160 c10 -11 16 -20 13 -20
-3 0 -13 9 -23 20 -10 11 -16 20 -13 20 3 0 13 -9 23 -20z m165 -165 c13 -14
21 -25 18 -25 -2 0 -15 11 -28 25 -13 14 -21 25 -18 25 2 0 15 -11 28 -25z"/>
<path d="M4256 8699 c-118 -19 -269 -122 -381 -261 -77 -96 -173 -283 -205
-398 -64 -233 -68 -547 -10 -759 l12 -44 61 59 62 59 -57 -60 c-32 -33 -58
-68 -58 -76 0 -28 104 -222 152 -284 80 -104 171 -180 301 -250 202 -108 457
-101 684 20 108 57 170 104 254 192 82 87 102 114 146 191 75 133 116 277 128
447 15 208 -35 362 -157 483 -62 62 -322 262 -340 262 -5 0 -7 4 -4 9 3 5 -18
32 -47 60 -55 54 -93 97 -152 171 -119 147 -239 202 -389 179z m-416 -1302 c0
-2 -10 -12 -22 -23 l-23 -19 19 23 c18 21 26 27 26 19z"/>
<path d="M8679 8705 c-3 -2 -27 -6 -55 -8 -63 -5 -107 -24 -170 -74 -59 -48
-147 -160 -137 -176 3 -7 2 -9 -2 -4 -12 10 -55 -32 -55 -54 0 -10 -5 -21 -12
-25 -7 -5 -8 -3 -3 7 5 8 -28 -19 -74 -59 -46 -40 -136 -112 -200 -160 -234
-174 -303 -280 -318 -491 -24 -346 143 -705 414 -889 77 -52 206 -117 274
-136 291 -85 591 17 802 272 72 87 114 157 157 262 36 87 36 96 8 129 l-23 26
26 -23 c32 -28 33 -27 54 102 20 121 19 357 -1 477 -18 110 -70 271 -115 361
-122 241 -323 423 -509 458 -62 12 -55 11 -61 5z m491 -1260 c13 -14 21 -25
18 -25 -2 0 -15 11 -28 25 -13 14 -21 25 -18 25 2 0 15 -11 28 -25z m80 -80
c19 -19 32 -35 29 -35 -3 0 -20 16 -39 35 -19 19 -32 35 -29 35 3 0 20 -16 39
-35z"/>
<path d="M6375 7810 c-245 -29 -383 -117 -537 -340 -24 -36 -48 -72 -51 -80
-4 -8 -18 -33 -32 -55 -14 -22 -34 -58 -45 -80 -19 -36 -51 -92 -105 -183 -11
-19 -39 -59 -63 -90 -137 -178 -259 -273 -546 -421 -308 -159 -455 -285 -551
-470 -66 -127 -78 -307 -31 -464 27 -89 84 -214 131 -283 44 -66 136 -155 207
-201 68 -44 181 -89 198 -78 4 3 10 1 12 -5 1 -5 40 -15 85 -20 141 -18 238 7
374 95 119 77 168 89 354 89 186 1 233 -9 419 -87 148 -61 209 -77 303 -77 99
0 157 14 292 71 160 68 252 90 397 97 93 3 139 1 198 -13 76 -16 180 -64 241
-109 126 -95 370 -94 560 1 108 55 177 115 260 228 88 121 144 260 167 419 10
72 9 96 -5 172 -50 261 -222 440 -616 641 -189 97 -296 169 -400 268 -124 119
-186 205 -306 425 -74 137 -146 249 -208 323 -84 102 -215 180 -352 210 -88
20 -259 28 -350 17z m-564 -597 c13 -16 12 -17 -3 -4 -10 7 -18 15 -18 17 0 8
8 3 21 -13z m90 -90 c13 -16 12 -17 -3 -4 -10 7 -18 15 -18 17 0 8 8 3 21 -13z
m74 -73 c10 -11 16 -20 13 -20 -3 0 -13 9 -23 20 -10 11 -16 20 -13 20 3 0 13
-9 23 -20z m80 -80 c10 -11 16 -20 13 -20 -3 0 -13 9 -23 20 -10 11 -16 20
-13 20 3 0 13 -9 23 -20z m86 -87 c13 -16 12 -17 -3 -4 -10 7 -18 15 -18 17 0
8 8 3 21 -13z m74 -73 c10 -11 16 -20 13 -20 -3 0 -13 9 -23 20 -10 11 -16 20
-13 20 3 0 13 -9 23 -20z m80 -80 c10 -11 16 -20 13 -20 -3 0 -13 9 -23 20
-10 11 -16 20 -13 20 3 0 13 -9 23 -20z m86 -87 c13 -16 12 -17 -3 -4 -10 7
-18 15 -18 17 0 8 8 3 21 -13z m74 -73 c10 -11 16 -20 13 -20 -3 0 -13 9 -23
20 -10 11 -16 20 -13 20 3 0 13 -9 23 -20z m68 -53 c4 3 7 4 7 1 0 -2 -12 -15
-27 -29 -20 -17 -23 -18 -11 -3 17 19 17 21 0 39 -17 19 -16 19 4 2 11 -9 24
-14 27 -10z m-163 -171 c0 -2 -8 -10 -17 -17 -16 -13 -17 -12 -4 4 13 16 21
21 21 13z m415 -96 c10 -11 16 -20 13 -20 -3 0 -13 9 -23 20 -10 11 -16 20
-13 20 3 0 13 -9 23 -20z m-575 -64 c0 -2 -8 -10 -17 -17 -16 -13 -17 -12 -4
4 13 16 21 21 21 13z m655 -16 c10 -11 16 -20 13 -20 -3 0 -13 9 -23 20 -10
11 -16 20 -13 20 3 0 13 -9 23 -20z m80 -80 c10 -11 16 -20 13 -20 -3 0 -13 9
-23 20 -10 11 -16 20 -13 20 3 0 13 -9 23 -20z m-895 -64 c0 -2 -8 -10 -17
-17 -16 -13 -17 -12 -4 4 13 16 21 21 21 13z m975 -16 c10 -11 16 -20 13 -20
-3 0 -13 9 -23 20 -10 11 -16 20 -13 20 3 0 13 -9 23 -20z m80 -80 c10 -11 16
-20 13 -20 -3 0 -13 9 -23 20 -10 11 -16 20 -13 20 3 0 13 -9 23 -20z m-1215
-64 c0 -2 -8 -10 -17 -17 -16 -13 -17 -12 -4 4 13 16 21 21 21 13z m1295 -16
c10 -11 16 -20 13 -20 -3 0 -13 9 -23 20 -10 11 -16 20 -13 20 3 0 13 -9 23
-20z m80 -80 c10 -11 16 -20 13 -20 -3 0 -13 9 -23 20 -10 11 -16 20 -13 20 3
0 13 -9 23 -20z m-1535 -64 c0 -2 -8 -10 -17 -17 -16 -13 -17 -12 -4 4 13 16
21 21 21 13z m1615 -16 c10 -11 16 -20 13 -20 -3 0 -13 9 -23 20 -10 11 -16
20 -13 20 3 0 13 -9 23 -20z m80 -80 c10 -11 16 -20 13 -20 -3 0 -13 9 -23 20
-10 11 -16 20 -13 20 3 0 13 -9 23 -20z m-1855 -64 c0 -2 -8 -10 -17 -17 -16
-13 -17 -12 -4 4 13 16 21 21 21 13z m1935 -16 c10 -11 16 -20 13 -20 -3 0
-13 9 -23 20 -10 11 -16 20 -13 20 3 0 13 -9 23 -20z"/>
<path d="M4100 11420 c0 -5 5 -10 10 -10 6 0 10 5 10 10 0 6 -4 10 -10 10 -5
0 -10 -4 -10 -10z"/>
<path d="M3690 10733 c-13 -15 -12 -16 4 -10 10 4 20 7 22 7 2 0 4 5 4 10 0
15 -13 12 -30 -7z"/>
<path d="M3386 10413 c-6 -14 -5 -15 5 -6 7 7 10 15 7 18 -3 3 -9 -2 -12 -12z"/>
<path d="M2681 9274 c0 -11 3 -14 6 -6 3 7 2 16 -1 19 -3 4 -6 -2 -5 -13z"/>
<path d="M2641 9174 c0 -11 3 -14 6 -6 3 7 2 16 -1 19 -3 4 -6 -2 -5 -13z"/>
</g>
</svg>
